# xmcd CD database file
#
# Track frame offsets:
#	150
#	20836
#	32282
#	43811
#	56552
#	69325
#	82380
#	96383
#	109089
#	121771
#	134449
#	145956
#	157541
#	170255
#	181433
#	194844
#	207558
#	222335
#	235839
#	249537
#	264625
#	275948
#	289896
#	304952
#
# Disc length: 4353 seconds
#
# Revision: 1
# Processed by: cddbd v1.5.2PL0 Copyright (c) Steve Scherf et al.
# Submitted via: CDex 1.51
#
DISCID=7910ff18
DTITLE=Various Artist - Good Vibrations  { Old and New World Jazz Vibists 1937-1955 }
DYEAR=2008
DGENRE=Jazz
TTITLE0=Honeysuckle Rose - Fats Waller And His Rhythm  [1937]
TTITLE1=A Wee Bit of Swing - Timme Rosenkrantz And His Barrelhouse  [1938]
TTITLE2=Flying Home - Lionel Hampton And His Orchestra  [1940]
TTITLE3=The Flat Foot Floogie - Slim And Slam (Slim Gaillard And Slam Stewart)  [1938]
TTITLE4=Medley - I Can't Believe That You're in Love with Me - I Can't Give You Anything but Love - Adrillan Rollini Trio [1939]
TTITLE5=I Can't Believe That You're in Love with Me - Red Norvo Trio  [1950]
TTITLE6=Japanese Sandman - Svend Asmussen And His Orchestra  [1940]
TTITLE7=Honeysuckle Rose - Ake Fagerlunds Orkester  [1939]
TTITLE8=Ich hab'eine Schwäche für blonde Frau'n - Benny De Weille Quartett  [1940]
TTITLE9=Tutti Frutti - String Swing  [1941]
TTITLE10=La Vipère du Trottoir - Jean Ferret Et Son Sixtette  [1943]
TTITLE11=Honeysuckle Rose - Harry Parry's Radio Rhythm Club Sextet  [1941]
TTITLE12=Don't Mention It - Flavio Ambrosetti Sextet  [1943]
TTITLE13=After You've Gone - Jack Conner And His Orchestra  [1945]
TTITLE14='S Wonderful - Ernst Hollerhagen Quintet  [1947]
TTITLE15=Boogie Misterioso - Mary Lou Williams' Girl Stars  [1946]
TTITLE16=Honeysuckle Rose - Benny Goodman Sextet  [1948]
TTITLE17=Fugology - Hubert Rostaing Et Son Sextette  [1948]
TTITLE18=Smokey Hollow Jump - The Be6bop Boys  [1946]
TTITLE19=Hallelujah ! - Thore Jederbys Orkerster  [1948]
TTITLE20=Hallelujah ! - Jack Diéval Quartet  [1947]
TTITLE21=I Remember You - Geo Daly Trio  [1955]
TTITLE22=Les Copeos - Christians Chevallier Et Son Quartette  [1955]
TTITLE23=T and S - Terry Gibbs And His Orchestra  [1952]
EXTD=YEAR: 2008
EXTT0=
EXTT1=
EXTT2=
EXTT3=
EXTT4=
EXTT5=
EXTT6=
EXTT7=
EXTT8=
EXTT9=
EXTT10=
EXTT11=
EXTT12=
EXTT13=
EXTT14=
EXTT15=
EXTT16=
EXTT17=
EXTT18=
EXTT19=
EXTT20=
EXTT21=
EXTT22=
EXTT23=
PLAYORDER=
